<svg width="31" height="31" viewBox="0 0 31 31" fill="none" xmlns="http://www.w3.org/2000/svg">
<g clip-path="url(#clip0_118_5599)">
<path d="M19.4961 3.00777L19.8242 2.51558L20.1523 2.03511L20.8789 0.945268C20.9727 0.816362 20.9375 0.628861 20.7969 0.54683C20.668 0.45308 20.4805 0.488237 20.3984 0.628862L19.625 1.78902L19.2969 2.2812L18.9687 2.77339C17.9141 2.36324 16.7539 2.14058 15.5117 2.14058C14.2812 2.14058 13.1094 2.36324 12.0547 2.77339L11.7266 2.2812L11.3984 1.78902L10.625 0.628862C10.5312 0.499956 10.3555 0.464798 10.2266 0.54683C10.0977 0.64058 10.0625 0.816362 10.1445 0.945268L10.8711 2.03511L11.1992 2.51558L11.5273 3.00777C9.06641 4.1562 7.39062 6.32417 7.39062 8.82027H23.6445C23.6328 6.32417 21.9687 4.1562 19.4961 3.00777ZM12.0195 6.48824C11.5391 6.48824 11.1523 6.10152 11.1523 5.62105C11.1523 5.14058 11.5391 4.75386 12.0195 4.75386C12.5 4.75386 12.8867 5.14058 12.8867 5.62105C12.8867 6.10152 12.5 6.48824 12.0195 6.48824ZM18.9805 6.48824C18.5 6.48824 18.1133 6.10152 18.1133 5.62105C18.1133 5.14058 18.5 4.75386 18.9805 4.75386C19.4609 4.75386 19.8477 5.14058 19.8477 5.62105C19.8594 6.10152 19.4727 6.48824 18.9805 6.48824Z" fill="#344054"/>
<path d="M7.49609 9.96875L7.36719 9.98047V11.4219V12.6055V22.7539C7.36719 23.7734 8.1875 24.5938 9.20703 24.5938H10.5312C10.4844 24.7461 10.4609 24.9102 10.4609 25.0742V25.168V25.7539V28.7539C10.4609 29.7148 11.2461 30.5 12.207 30.5C13.168 30.5 13.9531 29.7148 13.9531 28.7539V25.7539V25.168V25.0742C13.9531 24.9102 13.9297 24.7461 13.8828 24.5938H17.1172C17.0703 24.7461 17.0469 24.9102 17.0469 25.0742V25.168V25.7539V28.7539C17.0469 29.7148 17.832 30.5 18.793 30.5C19.7539 30.5 20.5391 29.7148 20.5391 28.7539V25.7539V25.168V25.0742C20.5391 24.9102 20.5156 24.7461 20.4688 24.5938H21.793C22.8125 24.5938 23.6328 23.7734 23.6328 22.7539V12.6055V11.4219V9.96875H23.5039H7.49609Z" fill="#344054"/>
<path d="M4.47266 9.98047C3.51172 9.98047 2.72656 10.7656 2.72656 11.7266V19.1797C2.72656 20.1406 3.51172 20.9258 4.47266 20.9258C5.43359 20.9258 6.21875 20.1406 6.21875 19.1797V11.7266C6.20703 10.7539 5.43359 9.98047 4.47266 9.98047Z" fill="#344054"/>
<path d="M26.5391 9.98047C25.5781 9.98047 24.793 10.7656 24.793 11.7266V19.1797C24.793 20.1406 25.5781 20.9258 26.5391 20.9258C27.5 20.9258 28.2852 20.1406 28.2852 19.1797V11.7266C28.2734 10.7539 27.5 9.98047 26.5391 9.98047Z" fill="#344054"/>
</g>
<defs>
<clipPath id="clip0_118_5599">
<rect width="30" height="30" fill="white" transform="translate(0.5 0.5)"/>
</clipPath>
</defs>
</svg>
