<svg width="25" height="24" viewBox="0 0 25 24" fill="none" xmlns="http://www.w3.org/2000/svg">
<g clip-path="url(#clip0_560_7982)">
<path d="M9.5 1V4M15.5 1V4M9.5 20V23M15.5 20V23M20.5 9H23.5M20.5 14H23.5M1.5 9H4.5M1.5 14H4.5M6.5 4H18.5C19.6046 4 20.5 4.89543 20.5 6V18C20.5 19.1046 19.6046 20 18.5 20H6.5C5.39543 20 4.5 19.1046 4.5 18V6C4.5 4.89543 5.39543 4 6.5 4ZM9.5 9H15.5V15H9.5V9Z" stroke="white" stroke-width="2" stroke-linecap="round" stroke-linejoin="round"/>
</g>
<defs>
<clipPath id="clip0_560_7982">
<rect width="24" height="24" fill="white" transform="translate(0.5)"/>
</clipPath>
</defs>
</svg>
