<svg width="30" height="24" viewBox="0 0 30 24" fill="none" xmlns="http://www.w3.org/2000/svg">
<mask id="path-1-inside-1_147_2223" fill="white">
<path d="M28.1252 2.85714H2.8125C2.8125 1.28171 1.76109 0 0.46875 0C0.209883 0 0 0.255857 0 0.571429C0 0.887 0.209883 1.14286 0.46875 1.14286C1.24418 1.14286 1.875 1.91186 1.875 2.85714V23.4286C1.875 23.7441 2.08488 24 2.34375 24C2.60262 24 2.8125 23.7441 2.8125 23.4286V22.8571H3.75059C4.52566 22.8571 5.15625 22.0884 5.15625 21.1436L28.1252 21.1429C29.1589 21.1429 30 20.1176 30 18.8574V5.14264C30 3.88243 29.1589 2.85714 28.1252 2.85714ZM29.0625 18.8574C29.0625 19.4874 28.642 20 28.1252 20H4.6875C4.42863 20 4.21875 20.2559 4.21875 20.5714V21.1436C4.21875 21.4583 4.00875 21.7143 3.75059 21.7143H2.8125V4H28.1252C28.642 4 29.0625 4.51257 29.0625 5.14264V18.8574Z"/>
</mask>
<path d="M28.1252 2.85714H2.8125C2.8125 1.28171 1.76109 0 0.46875 0C0.209883 0 0 0.255857 0 0.571429C0 0.887 0.209883 1.14286 0.46875 1.14286C1.24418 1.14286 1.875 1.91186 1.875 2.85714V23.4286C1.875 23.7441 2.08488 24 2.34375 24C2.60262 24 2.8125 23.7441 2.8125 23.4286V22.8571H3.75059C4.52566 22.8571 5.15625 22.0884 5.15625 21.1436L28.1252 21.1429C29.1589 21.1429 30 20.1176 30 18.8574V5.14264C30 3.88243 29.1589 2.85714 28.1252 2.85714ZM29.0625 18.8574C29.0625 19.4874 28.642 20 28.1252 20H4.6875C4.42863 20 4.21875 20.2559 4.21875 20.5714V21.1436C4.21875 21.4583 4.00875 21.7143 3.75059 21.7143H2.8125V4H28.1252C28.642 4 29.0625 4.51257 29.0625 5.14264V18.8574Z" fill="white"/>
<path d="M2.8125 2.85714H-10.1875V15.8571H2.8125V2.85714ZM2.8125 22.8571V9.85714H-10.1875V22.8571H2.8125ZM5.15625 21.1436L5.15585 8.14357L-7.84375 8.14398V21.1436H5.15625ZM28.1252 21.1429L28.1252 8.14286H28.1248L28.1252 21.1429ZM2.8125 21.7143H-10.1875V34.7143H2.8125V21.7143ZM2.8125 4V-9H-10.1875V4H2.8125ZM28.1252 -10.1429H2.8125V15.8571H28.1252V-10.1429ZM15.8125 2.85714C15.8125 -3.37139 11.2303 -13 0.46875 -13V13C-3.42213 13 -6.32034 11.0397 -7.92569 9.0827C-9.51199 7.14892 -10.1875 4.90821 -10.1875 2.85714H15.8125ZM0.46875 -13C-9.25929 -13 -13 -4.39724 -13 0.571429H13C13 3.2428 12.1199 6.0575 10.1882 8.41229C8.23459 10.7939 4.86446 13 0.46875 13V-13ZM-13 0.571429C-13 5.5401 -9.25929 14.1429 0.46875 14.1429V-11.8571C4.86446 -11.8571 8.23459 -9.65102 10.1882 -7.26943C12.1199 -4.91464 13 -2.09994 13 0.571429H-13ZM0.46875 14.1429C-3.68035 14.1429 -6.813 12.0546 -8.58828 9.89043C-10.3445 7.74957 -11.125 5.22309 -11.125 2.85714H14.875C14.875 -2.74124 10.7134 -11.8571 0.46875 -11.8571V14.1429ZM-11.125 2.85714V23.4286H14.875V2.85714H-11.125ZM-11.125 23.4286C-11.125 28.3972 -7.38434 37 2.34375 37V11C6.73949 11 10.1096 13.2062 12.0633 15.5877C13.9949 17.9425 14.875 20.7572 14.875 23.4286H-11.125ZM2.34375 37C12.0718 37 15.8125 28.3972 15.8125 23.4286H-10.1875C-10.1875 20.7572 -9.30741 17.9425 -7.37576 15.5877C-5.42212 13.2062 -2.05199 11 2.34375 11V37ZM15.8125 23.4286V22.8571H-10.1875V23.4286H15.8125ZM2.8125 35.8571H3.75059V9.85714H2.8125V35.8571ZM3.75059 35.8571C13.9948 35.8571 18.1562 26.7416 18.1562 21.1436H-7.84375C-7.84375 18.7772 -7.06301 16.2506 -5.30686 14.1098C-3.53169 11.9457 -0.398966 9.85714 3.75059 9.85714V35.8571ZM5.15665 34.1436L28.1256 34.1429L28.1248 8.14286L5.15585 8.14357L5.15665 34.1436ZM28.1252 34.1429C38.6281 34.1429 43 24.7707 43 18.8574H17C17 16.6486 17.7281 14.265 19.3993 12.2278C21.0895 10.1673 24.1049 8.14286 28.1252 8.14286V34.1429ZM43 18.8574V5.14264H17V18.8574H43ZM43 5.14264C43 -0.77067 38.6281 -10.1429 28.1252 -10.1429V15.8571C24.1049 15.8571 21.0895 13.8327 19.3993 11.7722C17.7281 9.73497 17 7.35137 17 5.14264H43ZM16.0625 18.8574C16.0625 16.3338 16.8956 13.6644 18.7367 11.42C20.5969 9.1524 23.8468 7 28.1252 7V33C38.1112 33 42.0625 24.1405 42.0625 18.8574H16.0625ZM28.1252 7H4.6875V33H28.1252V7ZM4.6875 7C-5.04059 7 -8.78125 15.6028 -8.78125 20.5714H17.2188C17.2188 23.2428 16.3387 26.0575 14.407 28.4123C12.4534 30.7938 9.08324 33 4.6875 33V7ZM-8.78125 20.5714V21.1436H17.2188V20.5714H-8.78125ZM-8.78125 21.1436C-8.78125 18.4626 -7.89565 15.6501 -5.96945 13.302C-4.02407 10.9305 -0.65681 8.71429 3.75059 8.71429V34.7143C13.4779 34.7143 17.2188 26.1114 17.2188 21.1436H-8.78125ZM3.75059 8.71429H2.8125V34.7143H3.75059V8.71429ZM15.8125 21.7143V4H-10.1875V21.7143H15.8125ZM2.8125 17H28.1252V-9H2.8125V17ZM28.1252 17C23.8468 17 20.5969 14.8476 18.7367 12.58C16.8956 10.3356 16.0625 7.6662 16.0625 5.14264H42.0625C42.0625 -0.140523 38.1112 -9 28.1252 -9V17ZM16.0625 5.14264V18.8574H42.0625V5.14264H16.0625Z" fill="white" mask="url(#path-1-inside-1_147_2223)"/>
<path d="M14.0625 7.42871C12.7194 7.42871 11.5396 8.29443 10.8772 9.59157C10.8312 9.65221 10.7964 9.72414 10.7754 9.80257C10.4807 10.4551 10.3125 11.2041 10.3125 12.0001C10.3125 12.8149 10.489 13.5798 10.7967 14.2429C10.8077 14.2714 10.8206 14.2985 10.8352 14.3244C11.4889 15.6683 12.6906 16.5716 14.0625 16.5716C16.1303 16.5716 17.8125 14.5209 17.8125 12.0001C17.8125 11.1854 17.636 10.4205 17.3283 9.75735C17.3173 9.72893 17.3044 9.70178 17.2898 9.67593C16.6361 8.332 15.4344 7.42871 14.0625 7.42871ZM11.25 12.0001C11.25 11.6862 11.2854 11.3824 11.3506 11.0934C11.5613 11.3204 11.8459 11.5741 12.2316 11.8455C12.6052 12.1084 12.9196 12.2796 13.1813 12.3892C13.0276 12.5364 12.8304 12.7024 12.5831 12.8764C12.0881 13.2249 11.715 13.3792 11.5073 13.4301C11.3426 12.9946 11.25 12.5104 11.25 12.0001ZM16.875 12.0001C16.875 12.2932 16.8445 12.5778 16.7875 12.8495C16.5756 12.619 16.287 12.3604 15.8934 12.0834C15.5442 11.8376 15.2468 11.6721 14.9957 11.5621C15.1412 11.4274 15.3217 11.2788 15.5419 11.1239C16.0368 10.7756 16.41 10.6211 16.6177 10.5701C16.7824 11.0057 16.875 11.4899 16.875 12.0001ZM16.0516 9.57864C15.7843 9.6875 15.4606 9.8615 15.0732 10.1341C14.7069 10.392 14.4315 10.6339 14.2242 10.8521C14.1979 10.6203 14.1797 10.3371 14.1797 10.0001C14.1797 9.30278 14.2567 8.8315 14.3244 8.58693C14.9961 8.66293 15.6002 9.02757 16.0516 9.57864ZM13.3371 8.68778C13.2806 9.02471 13.2422 9.454 13.2422 10.0001C13.2422 10.5041 13.2748 10.9088 13.3243 11.233C13.1472 11.145 12.9381 11.0231 12.7003 10.8557C12.2138 10.5134 11.9192 10.2015 11.7763 10.0069C12.1509 9.37014 12.6996 8.8955 13.3371 8.68778ZM12.0732 14.4214C12.3406 14.3126 12.6642 14.139 13.0518 13.8661C13.4181 13.6083 13.6935 13.3664 13.9008 13.1482C13.9271 13.38 13.9453 13.6632 13.9453 14.0001C13.9453 14.6975 13.8683 15.1688 13.8006 15.4134C13.1288 15.3374 12.5246 14.9726 12.0732 14.4214ZM14.7879 15.3125C14.8444 14.9756 14.8828 14.5463 14.8828 14.0001C14.8828 13.4549 14.8446 13.0262 14.7882 12.6896C14.9679 12.778 15.1813 12.9018 15.4247 13.0731C15.9383 13.4345 16.2387 13.7625 16.3718 13.9538C15.9968 14.6106 15.4386 15.1005 14.7879 15.3125Z" fill="white"/>
<path d="M25.7812 5.71436C25.5224 5.71436 25.3125 5.97021 25.3125 6.28578C25.3125 6.60136 25.5224 6.85721 25.7812 6.85721C26.2982 6.85721 26.7188 7.36993 26.7188 8.00007V16.0001C26.7188 16.6302 26.2982 17.1429 25.7812 17.1429H14.0625C11.7363 17.1429 9.84375 14.8359 9.84375 12.0001C9.84375 9.16428 11.7363 6.85721 14.0625 6.85721H23.9062C24.1651 6.85721 24.375 6.60136 24.375 6.28578C24.375 5.97021 24.1651 5.71436 23.9062 5.71436H14.0625C11.2194 5.71436 8.90625 8.53414 8.90625 12.0001C8.90625 15.466 11.2194 18.2858 14.0625 18.2858H25.7812C26.8151 18.2858 27.6562 17.2604 27.6562 16.0001V8.00007C27.6562 6.73971 26.8151 5.71436 25.7812 5.71436Z" fill="white"/>
<path d="M6.5625 10.2856H5.15625C4.63934 10.2856 4.21875 10.7984 4.21875 11.4285V12.5714C4.21875 13.2015 4.63934 13.7142 5.15625 13.7142H6.5625C7.07941 13.7142 7.5 13.2015 7.5 12.5714V11.4285C7.5 10.7984 7.07941 10.2856 6.5625 10.2856ZM5.15625 12.5714V11.4285H6.5625L6.56256 12.5714H5.15625Z" fill="white"/>
<path d="M6.5625 6.28564H5.15625C4.63934 6.28564 4.21875 6.79836 4.21875 7.4285V8.57136C4.21875 9.2015 4.63934 9.71422 5.15625 9.71422H6.5625C7.07941 9.71422 7.5 9.2015 7.5 8.57136V7.4285C7.5 6.79836 7.07941 6.28564 6.5625 6.28564ZM5.15625 8.57136V7.4285H6.5625L6.56256 8.57136H5.15625Z" fill="white"/>
<path d="M6.5625 14.2856H5.15625C4.63934 14.2856 4.21875 14.7984 4.21875 15.4285V16.5714C4.21875 17.2015 4.63934 17.7142 5.15625 17.7142H6.5625C7.07941 17.7142 7.5 17.2015 7.5 16.5714V15.4285C7.5 14.7984 7.07941 14.2856 6.5625 14.2856ZM5.15625 16.5714V15.4285H6.5625L6.56256 16.5714H5.15625Z" fill="white"/>
<path d="M25.3125 8H23.9062C23.6474 8 23.4375 8.25586 23.4375 8.57143C23.4375 8.887 23.6474 9.14286 23.9062 9.14286H25.3125C25.5714 9.14286 25.7812 8.887 25.7812 8.57143C25.7812 8.25586 25.5714 8 25.3125 8Z" fill="white"/>
<path d="M25.3125 14.8569H23.9062C23.6474 14.8569 23.4375 15.1128 23.4375 15.4284C23.4375 15.7439 23.6474 15.9998 23.9062 15.9998H25.3125C25.5714 15.9998 25.7812 15.7439 25.7812 15.4284C25.7812 15.1128 25.5714 14.8569 25.3125 14.8569Z" fill="white"/>
<path d="M25.3125 9.71436H23.9062C23.6474 9.71436 23.4375 9.97021 23.4375 10.2858C23.4375 10.6014 23.6474 10.8572 23.9062 10.8572H25.3125C25.5714 10.8572 25.7812 10.6014 25.7812 10.2858C25.7812 9.97021 25.5714 9.71436 25.3125 9.71436Z" fill="white"/>
<path d="M25.3125 11.4287H23.9062C23.6474 11.4287 23.4375 11.6846 23.4375 12.0001C23.4375 12.3157 23.6474 12.5716 23.9062 12.5716H25.3125C25.5714 12.5716 25.7812 12.3157 25.7812 12.0001C25.7812 11.6846 25.5714 11.4287 25.3125 11.4287Z" fill="white"/>
<path d="M25.3125 13.1431H23.9062C23.6474 13.1431 23.4375 13.3989 23.4375 13.7145C23.4375 14.0301 23.6474 14.2859 23.9062 14.2859H25.3125C25.5714 14.2859 25.7812 14.0301 25.7812 13.7145C25.7812 13.3989 25.5714 13.1431 25.3125 13.1431Z" fill="white"/>
</svg>
