<svg width="31" height="31" viewBox="0 0 31 31" fill="none" xmlns="http://www.w3.org/2000/svg">
<g clip-path="url(#clip0_118_5605)">
<path fill-rule="evenodd" clip-rule="evenodd" d="M20.1063 5.28931C21.1999 4.02182 21.9371 2.25647 21.7354 0.5C20.1594 0.56 18.2528 1.50672 17.1228 2.77271C16.1081 3.89619 15.2223 5.69135 15.4604 7.41333C17.2184 7.54382 19.0127 6.55828 20.1063 5.28931ZM24.0485 16.4375C24.0925 20.9779 28.2045 22.4883 28.25 22.5078C28.2166 22.6143 27.5932 24.6599 26.084 26.7749C24.7781 28.6019 23.4236 30.4214 21.2894 30.4604C19.1932 30.4979 18.5182 29.2695 16.1202 29.2695C13.7237 29.2695 12.9744 30.4213 10.9904 30.4978C8.93059 30.5713 7.36071 28.5212 6.04565 26.7002C3.35485 22.9757 1.2996 16.1751 4.06016 11.5852C5.43135 9.30674 7.88097 7.86168 10.5414 7.82568C12.5633 7.78818 14.473 9.12939 15.7091 9.12939C16.9453 9.12939 19.266 7.51691 21.705 7.75391C22.7258 7.79441 25.5926 8.14828 27.4324 10.7297C27.2838 10.8182 24.0121 12.6426 24.0485 16.4375Z" fill="#344054"/>
</g>
<defs>
<clipPath id="clip0_118_5605">
<rect width="30" height="30" fill="white" transform="translate(0.5 0.5)"/>
</clipPath>
</defs>
</svg>
