<svg width="32" height="33" viewBox="0 0 32 33" fill="none" xmlns="http://www.w3.org/2000/svg">
<path d="M23.5412 22.2243C22.2924 23.4731 19.6808 26.0847 17.8838 27.8817C16.8424 28.9231 15.1556 28.9237 14.1142 27.8823C12.3485 26.1165 9.78749 23.5555 8.45623 22.2243C4.29063 18.0587 4.29063 11.3049 8.45623 7.13933C12.6218 2.97374 19.3756 2.97374 23.5412 7.13933C27.7068 11.3049 27.7068 18.0587 23.5412 22.2243Z" stroke="#060544" stroke-width="2" stroke-linecap="round" stroke-linejoin="round"/>
<path d="M19.9987 14.6818C19.9987 16.8909 18.2078 18.6818 15.9987 18.6818C13.7896 18.6818 11.9987 16.8909 11.9987 14.6818C11.9987 12.4727 13.7896 10.6818 15.9987 10.6818C18.2078 10.6818 19.9987 12.4727 19.9987 14.6818Z" stroke="#060544" stroke-width="2" stroke-linecap="round" stroke-linejoin="round"/>
</svg>
