<svg width="66" height="66" viewBox="0 0 66 66" fill="none" xmlns="http://www.w3.org/2000/svg">
<path d="M5.5 13.75C5.5 12.2913 6.07946 10.8924 7.11091 9.86091C8.14236 8.82946 9.54131 8.25 11 8.25H55C56.4587 8.25 57.8576 8.82946 58.8891 9.86091C59.9205 10.8924 60.5 12.2913 60.5 13.75V44C60.5 45.4587 59.9205 46.8576 58.8891 47.8891C57.8576 48.9205 56.4587 49.5 55 49.5H11C9.54131 49.5 8.14236 48.9205 7.11091 47.8891C6.07946 46.8576 5.5 45.4587 5.5 44V13.75ZM55 13.75H11V44H55V13.75ZM60.5 55C60.5 55.7293 60.2103 56.4288 59.6945 56.9445C59.1788 57.4603 58.4793 57.75 57.75 57.75H8.25C7.52065 57.75 6.82118 57.4603 6.30546 56.9445C5.78973 56.4288 5.5 55.7293 5.5 55C5.5 54.2707 5.78973 53.5712 6.30546 53.0555C6.82118 52.5397 7.52065 52.25 8.25 52.25H57.75C58.4793 52.25 59.1788 52.5397 59.6945 53.0555C60.2103 53.5712 60.5 54.2707 60.5 55Z" fill="#1D2939"/>
</svg>
