<svg width="31" height="31" viewBox="0 0 31 31" fill="none" xmlns="http://www.w3.org/2000/svg">
<g clip-path="url(#clip0_118_5608)">
<path fill-rule="evenodd" clip-rule="evenodd" d="M30.4177 0.529297C27.2311 0.972617 24.2209 1.39139 21.3924 1.78549C18.7192 2.15756 16.7038 2.51135 14.3023 2.84568C14.3023 4.85896 14.3023 6.86896 14.3023 8.87697C14.3023 10.8847 14.3023 12.8925 14.3023 14.9006C16.7038 14.8865 18.7192 14.8716 21.3953 14.8555C24.2238 14.8389 27.2311 14.8214 30.4177 14.8023C30.4177 12.4246 30.4177 10.0477 30.4177 7.67029C30.4177 5.29303 30.4177 2.91271 30.4177 0.529297ZM12.9178 3.03881C10.7039 3.3473 8.07037 3.64062 6.06594 3.92006C4.1532 4.18631 2.32719 4.44107 0.582031 4.68459C0.582031 6.40314 0.582031 8.12012 0.582031 9.83457C0.582031 11.5495 0.582031 13.2639 0.582031 14.9788C2.3242 14.9686 4.15314 14.9576 6.06594 14.9461C8.07031 14.9344 10.7009 14.9217 12.9178 14.9086C12.9178 12.9317 12.9178 10.9546 12.9178 8.97752C12.9178 7.00039 12.9178 5.02086 12.9178 3.03881ZM0.582031 15.9915C0.582031 17.7086 0.582031 19.423 0.582031 21.1379C0.582031 22.8528 0.582031 24.5672 0.582031 26.2797C2.3242 26.5249 4.15021 26.7816 6.06277 27.0502C8.06762 27.3318 10.7009 27.6279 12.9177 27.9393C12.9177 25.9647 12.9177 23.9876 12.9177 22.0104C12.9177 20.0336 12.9177 18.0563 12.9177 16.0767C10.7009 16.0606 8.07031 16.0453 6.06588 16.0309C4.15027 16.0173 2.32426 16.0041 0.582031 15.9915ZM14.3023 28.134C16.7038 28.4714 18.7192 28.8277 21.3953 29.2037C24.2238 29.6011 27.2311 30.0236 30.4177 30.4707C30.4177 28.0964 30.4177 25.719 30.4177 23.3418C30.4177 20.9642 30.4177 18.5872 30.4177 16.2068C27.2311 16.1839 24.2238 16.1618 21.3953 16.1415C18.7192 16.1223 16.7039 16.104 14.3023 16.0865C14.3023 18.0968 14.3023 20.1048 14.3023 22.1132C14.3023 24.1206 14.3023 26.1284 14.3023 28.134Z" fill="#344054"/>
</g>
<defs>
<clipPath id="clip0_118_5608">
<rect width="30" height="30" fill="white" transform="translate(0.5 0.5)"/>
</clipPath>
</defs>
</svg>
