<svg width="178" height="172" viewBox="0 0 178 172" fill="none" xmlns="http://www.w3.org/2000/svg">
<path d="M155.422 115.52H116.542C115.462 115.52 114.742 114.8 114.742 113.72C114.742 112.64 115.462 111.92 116.542 111.92H155.422C156.502 111.92 157.222 112.64 157.222 113.72C157.222 114.8 156.502 115.52 155.422 115.52Z" fill="#28BCB8"/>
<path d="M155.422 124.16H116.542C115.462 124.16 114.742 123.44 114.742 122.36C114.742 121.28 115.462 120.56 116.542 120.56H155.422C156.502 120.56 157.222 121.28 157.222 122.36C157.222 123.44 156.502 124.16 155.422 124.16Z" fill="#28BCB8"/>
<path d="M155.422 132.8H116.542C115.462 132.8 114.742 132.08 114.742 131C114.742 129.92 115.462 129.2 116.542 129.2H155.422C156.502 129.2 157.222 129.92 157.222 131C157.222 132.08 156.502 132.8 155.422 132.8Z" fill="#28BCB8"/>
<path d="M157.222 139.64C157.222 140.54 156.502 141.44 155.422 141.44H116.542C115.462 141.44 114.742 140.54 114.742 139.64C114.742 139.46 114.742 139.46 114.742 139.46C114.922 138.56 115.642 137.84 116.542 137.84H155.422C156.502 137.84 157.222 138.74 157.222 139.64Z" fill="#28BCB8"/>
<path d="M135.982 150.08H116.542C115.462 150.08 114.742 149.36 114.742 148.28C114.742 147.2 115.462 146.48 116.542 146.48H135.982C137.062 146.48 137.782 147.2 137.782 148.28C137.782 149.36 137.062 150.08 135.982 150.08Z" fill="#28BCB8"/>
<path d="M155.417 163.76H142.277C141.197 163.76 140.477 163.04 140.477 161.96C140.477 160.88 141.197 160.16 142.277 160.16H155.417C156.497 160.16 157.217 160.88 157.217 161.96C157.217 163.04 156.497 163.76 155.417 163.76Z" fill="#28BCB8"/>
<path d="M5.48078 168.26H2.60078C1.52078 168.26 0.800781 168.98 0.800781 170.06C0.800781 171.14 1.52078 171.86 2.60078 171.86H5.48078C6.56078 171.86 7.28078 171.14 7.28078 170.06C7.28078 168.98 6.56078 168.26 5.48078 168.26Z" fill="#28BCB8"/>
<path d="M175.398 168.26H170.718C169.638 168.26 168.918 168.98 168.918 170.06C168.918 171.14 169.638 171.86 170.718 171.86H175.398C176.478 171.86 177.198 171.14 177.198 170.06C177.198 168.98 176.298 168.26 175.398 168.26Z" fill="#28BCB8"/>
<path d="M143.544 75.9196C145.524 75.9196 147.144 74.2997 147.144 72.3196V66.3796C163.344 64.2196 175.944 50.1796 175.944 33.4396C175.944 15.0796 161.004 0.139648 142.644 0.139648C124.284 0.139648 109.344 15.0796 109.344 33.4396C109.344 40.4596 111.504 47.1196 115.284 52.3396C81.2644 52.3396 42.0244 52.3396 9.08437 52.3396C7.10437 52.3396 5.48438 53.9596 5.48438 55.9396V72.1396C5.48438 74.1196 7.10437 75.7396 9.08437 75.7396H11.2444V83.4796C11.2444 84.5596 11.9644 85.2796 13.0444 85.2796C13.9444 85.2796 14.8444 84.5596 14.8444 83.4796V75.7396H59.4844V103.28C59.4844 104 59.8444 104.54 60.3844 104.9C60.9244 105.26 61.6444 105.08 62.3644 104.72L76.4044 94.4596L90.4444 104.72C90.8044 104.9 91.1644 105.08 91.5244 105.08C91.7044 105.08 92.0644 105.08 92.2444 104.9C92.7844 104.54 93.3244 104 93.3244 103.28V75.9196H137.964V100.4H110.424C107.004 100.4 104.304 103.1 104.304 106.52V139.46H90.4444C89.5444 139.46 88.6444 140.18 88.6444 141.26C88.6444 142.34 89.5444 143.06 90.4444 143.06H104.304V147.74H90.4444C89.5444 147.74 88.6444 148.64 88.6444 149.54C88.6444 150.44 89.5444 151.34 90.4444 151.34H104.304V156.02H90.4444C89.3644 156.02 88.6444 156.74 88.6444 157.82C88.6444 158.9 89.3644 159.62 90.4444 159.62H104.304V165.74C104.304 166.64 104.484 167.54 104.844 168.26H18.8044C16.6444 168.26 14.8444 166.46 14.8444 164.3V93.1996C14.8444 92.2996 13.9444 91.3997 13.0444 91.3997C11.9644 91.3997 11.2444 92.2996 11.2444 93.1996V164.3C11.2444 165.74 11.6044 167.18 12.5044 168.44C11.7844 168.8 11.4244 169.34 11.4244 170.06C11.4244 171.14 12.3244 171.86 13.2244 171.86H163.704C164.784 171.86 165.504 171.14 165.504 170.06C165.504 169.52 165.144 168.98 164.784 168.62C165.324 167.72 165.504 166.82 165.504 165.74V153.5C165.504 152.42 164.784 151.7 163.704 151.7C162.804 151.7 161.904 152.42 161.904 153.5V165.74C161.904 167.18 160.824 168.26 159.384 168.26C143.004 168.26 120.504 168.26 110.424 168.26C108.984 168.26 107.904 167.18 107.904 165.74C107.904 125.78 107.904 146.84 107.904 106.52C107.904 105.08 108.984 104 110.424 104H159.384C160.824 104 161.904 105.08 161.904 106.52V145.94C161.904 147.02 162.804 147.74 163.704 147.74C164.784 147.74 165.504 147.02 165.504 145.94V106.52C165.504 103.1 162.804 100.4 159.384 100.4H141.384V75.9196H143.544ZM112.944 33.4396C112.944 17.0596 126.264 3.73965 142.644 3.73965C159.024 3.73965 172.344 17.0596 172.344 33.4396C172.344 48.1996 161.364 60.6196 147.144 62.7796C145.884 62.9596 144.804 63.1396 143.544 63.1396C143.184 63.1396 142.824 63.1396 142.644 63.1396C126.264 63.1396 112.944 49.8196 112.944 33.4396ZM118.164 56.1197C124.284 62.7797 132.924 66.9196 142.644 66.9196H143.544V72.4996H139.584H93.1444V56.1197H118.164ZM8.90438 72.3196V56.1197H59.3044V72.4996L8.90438 72.3196ZM89.5444 100.04L77.4844 91.0396C76.9444 90.4996 76.0444 90.4996 75.3244 91.0396L63.0844 100.04C63.0844 84.7396 63.0844 71.9596 63.0844 56.1197H89.5444V100.04Z" fill="#28BCB8"/>
<path d="M31.2188 159.62C32.2988 159.62 33.0188 158.9 33.0188 157.82V143.06L37.1588 147.2C37.8788 147.92 38.9588 147.92 39.6788 147.2C40.3988 146.48 40.3988 145.4 39.6788 144.68L32.4788 137.48C31.7588 136.76 30.6788 136.76 29.9588 137.48L22.7588 144.68C22.0388 145.4 22.0388 146.48 22.7588 147.2C23.4788 147.92 24.5588 147.92 25.2788 147.2L29.4187 143.06V157.82C29.4187 158.9 30.3188 159.62 31.2188 159.62Z" fill="#28BCB8"/>
<path d="M55.6992 159.62C56.7792 159.62 57.4992 158.9 57.4992 157.82V143.06L61.6392 147.2C62.3592 147.92 63.4392 147.92 64.1592 147.2C64.8792 146.48 64.8792 145.4 64.1592 144.68L56.9592 137.48C56.2392 136.76 55.1592 136.76 54.4392 137.48L47.2392 144.68C46.5192 145.4 46.5192 146.48 47.2392 147.2C47.9592 147.92 49.0392 147.92 49.7592 147.2L53.8992 143.06V157.82C53.8992 158.9 54.7992 159.62 55.6992 159.62Z" fill="#28BCB8"/>
<path d="M130.939 49.2794C132.019 50.3594 133.279 50.8994 134.719 50.8994C136.159 50.8994 137.599 50.3594 138.499 49.2794L162.439 25.3394C164.599 23.1794 164.599 19.7594 162.439 17.7794C160.279 15.6194 156.859 15.6194 154.879 17.7794L134.719 37.7594L130.399 33.4394C128.239 31.2794 124.819 31.2794 122.839 33.4394C120.679 35.5994 120.679 39.0194 122.839 40.9994L130.939 49.2794ZM125.359 35.9594C125.719 35.5994 126.079 35.4194 126.619 35.4194C127.159 35.4194 127.519 35.5994 127.879 35.9594L133.459 41.5394C134.179 42.2594 135.259 42.2594 135.979 41.5394L157.219 20.2994C157.939 19.5794 159.019 19.5794 159.739 20.2994C160.459 21.0194 160.459 22.0994 159.739 22.8194L135.979 46.5794C135.259 47.2994 134.179 47.2994 133.459 46.5794L125.359 38.4794C124.639 37.9394 124.639 36.6794 125.359 35.9594Z" fill="#28BCB8"/>
</svg>
