<svg width="32" height="33" viewBox="0 0 32 33" fill="none" xmlns="http://www.w3.org/2000/svg">
<path d="M4 6.6818C4 5.20904 5.19391 4.01514 6.66667 4.01514H11.039C11.6129 4.01514 12.1224 4.38238 12.3039 4.92683L14.301 10.9181C14.5108 11.5476 14.2258 12.2356 13.6324 12.5323L10.6227 14.0371C12.0923 17.2968 14.7184 19.9228 17.978 21.3925L19.4828 18.3828C19.7796 17.7893 20.4676 17.5043 21.0971 17.7142L27.0883 19.7112C27.6328 19.8927 28 20.4022 28 20.9761V25.3485C28 26.8212 26.8061 28.0151 25.3333 28.0151H24C12.9543 28.0151 4 19.0608 4 8.01514V6.6818Z" stroke="#060544" stroke-width="2" stroke-linecap="round" stroke-linejoin="round"/>
</svg>
