<svg width="30" height="30" viewBox="0 0 30 30" fill="none" xmlns="http://www.w3.org/2000/svg">
<g clip-path="url(#clip0_147_2239)">
<path d="M29.3478 6.52173H0.652174C0.291478 6.52173 0 6.81321 0 7.1739V18.913C0 19.2737 0.291478 19.5652 0.652174 19.5652H1.30435V22.8261C1.30435 23.1868 1.59583 23.4783 1.95652 23.4783H28.0435C28.4042 23.4783 28.6957 23.1868 28.6957 22.8261V19.5652H29.3478C29.7085 19.5652 30 19.2737 30 18.913V7.1739C30 6.81321 29.7085 6.52173 29.3478 6.52173ZM27.3913 22.1739H25.4348H22.8261H20.2174H17.6087H15H12.3913H9.78261H7.17391H4.56522H2.6087V19.5652H4.56522H7.17391H9.78261H12.3913H15H17.6087H20.2174H22.8261H25.4348H27.3913V22.1739ZM28.6957 18.2609H28.0435H1.95652H1.30435V7.82608H28.6957V18.2609Z" fill="white"/>
<path d="M3.26155 16.9565H7.17459C7.53529 16.9565 7.82677 16.665 7.82677 16.3043V9.78261C7.82677 9.42191 7.53529 9.13043 7.17459 9.13043H3.26155C2.90085 9.13043 2.60938 9.42191 2.60938 9.78261V16.3043C2.60937 16.665 2.90085 16.9565 3.26155 16.9565ZM3.91372 10.4348H6.52242V15.6522H3.91372V10.4348Z" fill="white"/>
<path d="M9.78108 16.9565H13.6941C14.0548 16.9565 14.3463 16.665 14.3463 16.3043V9.78261C14.3463 9.42191 14.0548 9.13043 13.6941 9.13043H9.78108C9.42038 9.13043 9.12891 9.42191 9.12891 9.78261V16.3043C9.12891 16.665 9.42038 16.9565 9.78108 16.9565ZM10.4333 10.4348H13.0419V15.6522H10.4333V10.4348Z" fill="white"/>
<path d="M16.3045 16.9565H20.2176C20.5783 16.9565 20.8697 16.665 20.8697 16.3043V9.78261C20.8697 9.42191 20.5783 9.13043 20.2176 9.13043H16.3045C15.9438 9.13043 15.6523 9.42191 15.6523 9.78261V16.3043C15.6523 16.665 15.9438 16.9565 16.3045 16.9565ZM16.9567 10.4348H19.5654V15.6522H16.9567V10.4348Z" fill="white"/>
<path d="M22.828 16.9565H26.741C27.1017 16.9565 27.3932 16.665 27.3932 16.3043V9.78261C27.3932 9.42191 27.1017 9.13043 26.741 9.13043H22.828C22.4673 9.13043 22.1758 9.42191 22.1758 9.78261V16.3043C22.1758 16.665 22.4673 16.9565 22.828 16.9565ZM23.4801 10.4348H26.0888V15.6522H23.4801V10.4348Z" fill="white"/>
<path d="M5.21841 21.5217V20.2174C5.21841 19.8567 4.92693 19.5652 4.56624 19.5652C4.20554 19.5652 3.91406 19.8567 3.91406 20.2174V21.5217C3.91406 21.8824 4.20554 22.1739 4.56624 22.1739C4.92693 22.1739 5.21841 21.8824 5.21841 21.5217Z" fill="white"/>
<path d="M7.82779 21.5217V20.2174C7.82779 19.8567 7.53631 19.5652 7.17561 19.5652C6.81492 19.5652 6.52344 19.8567 6.52344 20.2174V21.5217C6.52344 21.8824 6.81492 22.1739 7.17561 22.1739C7.53631 22.1739 7.82779 21.8824 7.82779 21.5217Z" fill="white"/>
<path d="M10.4333 21.5217V20.2174C10.4333 19.8567 10.1418 19.5652 9.78108 19.5652C9.42038 19.5652 9.12891 19.8567 9.12891 20.2174V21.5217C9.12891 21.8824 9.42038 22.1739 9.78108 22.1739C10.1418 22.1739 10.4333 21.8824 10.4333 21.5217Z" fill="white"/>
<path d="M13.0426 21.5217V20.2174C13.0426 19.8567 12.7512 19.5652 12.3905 19.5652C12.0298 19.5652 11.7383 19.8567 11.7383 20.2174V21.5217C11.7383 21.8824 12.0298 22.1739 12.3905 22.1739C12.7512 22.1739 13.0426 21.8824 13.0426 21.5217Z" fill="white"/>
<path d="M15.652 21.5217V20.2174C15.652 19.8567 15.3605 19.5652 14.9998 19.5652C14.6391 19.5652 14.3477 19.8567 14.3477 20.2174V21.5217C14.3477 21.8824 14.6391 22.1739 14.9998 22.1739C15.3605 22.1739 15.652 21.8824 15.652 21.5217Z" fill="white"/>
<path d="M18.2614 21.5217V20.2174C18.2614 19.8567 17.9699 19.5652 17.6092 19.5652C17.2485 19.5652 16.957 19.8567 16.957 20.2174V21.5217C16.957 21.8824 17.2485 22.1739 17.6092 22.1739C17.9699 22.1739 18.2614 21.8824 18.2614 21.5217Z" fill="white"/>
<path d="M20.8708 21.5217V20.2174C20.8708 19.8567 20.5793 19.5652 20.2186 19.5652C19.8579 19.5652 19.5664 19.8567 19.5664 20.2174V21.5217C19.5664 21.8824 19.8579 22.1739 20.2186 22.1739C20.5793 22.1739 20.8708 21.8824 20.8708 21.5217Z" fill="white"/>
<path d="M23.4801 21.5217V20.2174C23.4801 19.8567 23.1887 19.5652 22.828 19.5652C22.4673 19.5652 22.1758 19.8567 22.1758 20.2174V21.5217C22.1758 21.8824 22.4673 22.1739 22.828 22.1739C23.1887 22.1739 23.4801 21.8824 23.4801 21.5217Z" fill="white"/>
<path d="M26.0856 21.5217V20.2174C26.0856 19.8567 25.7941 19.5652 25.4334 19.5652C25.0727 19.5652 24.7812 19.8567 24.7812 20.2174V21.5217C24.7812 21.8824 25.0727 22.1739 25.4334 22.1739C25.7941 22.1739 26.0856 21.8824 26.0856 21.5217Z" fill="white"/>
</g>
<defs>
<clipPath id="clip0_147_2239">
<rect width="30" height="30" fill="white"/>
</clipPath>
</defs>
</svg>
