<svg width="24" height="24" viewBox="0 0 24 24" fill="none" xmlns="http://www.w3.org/2000/svg">
<path d="M9.99609 17H15.9961M15.9961 17V6C15.9961 5.46957 15.7854 4.96086 15.4103 4.58579C15.0352 4.21071 14.5265 4 13.9961 4H3.99609C3.46566 4 2.95695 4.21071 2.58188 4.58579C2.20681 4.96086 1.99609 5.46957 1.99609 6V16C1.99609 16.2652 2.10145 16.5196 2.28899 16.7071C2.47652 16.8946 2.73088 17 2.99609 17H3.99609M15.9961 17V8H17.9961C19.057 8 20.0744 8.42143 20.8245 9.17157C21.5747 9.92172 21.9961 10.9391 21.9961 12V16C21.9961 16.2652 21.8907 16.5196 21.7032 16.7071C21.5157 16.8946 21.2613 17 20.9961 17M15.9961 17H20.9961M20.9961 17C20.9961 17.7956 20.68 18.5587 20.1174 19.1213C19.5548 19.6839 18.7917 20 17.9961 20C17.2004 20 16.4374 19.6839 15.8748 19.1213C15.3122 18.5587 14.9961 17.7956 14.9961 17H20.9961ZM21.9961 14H19.9961" stroke="#1D2939" stroke-width="2" stroke-linecap="round" stroke-linejoin="round"/>
<path d="M6.99609 20C8.65295 20 9.99609 18.6569 9.99609 17C9.99609 15.3431 8.65295 14 6.99609 14C5.33924 14 3.99609 15.3431 3.99609 17C3.99609 18.6569 5.33924 20 6.99609 20Z" stroke="#1D2939" stroke-width="2" stroke-linecap="round" stroke-linejoin="round"/>
</svg>
