<svg width="31" height="31" viewBox="0 0 31 31" fill="none" xmlns="http://www.w3.org/2000/svg">
<path d="M19.342 8.84472C19.6111 9.00222 19.9345 9.09597 20.2795 9.09597C21.3164 9.09597 22.1564 8.25597 22.1564 7.2191C22.1564 6.18222 21.3164 5.34222 20.2795 5.34222C19.5877 5.34222 18.983 5.71722 18.6577 6.2741L18.653 6.28347C18.4964 6.5516 18.4036 6.8741 18.4036 7.21816C18.4036 7.9091 18.7767 8.51285 19.3327 8.8391L19.3411 8.84378L19.342 8.84472ZM15.5002 10.0175C18.3567 10.0175 20.7023 12.2028 20.9583 14.9928L20.9602 15.0144L23.6367 14.9741C23.4989 12.8919 22.598 11.0432 21.2133 9.68472L21.2123 9.68378C20.9348 9.79253 20.6133 9.85535 20.2777 9.85535C18.9717 9.85535 17.887 8.90285 17.6827 7.6541L17.6808 7.6391C17.0273 7.45441 16.2773 7.34753 15.502 7.3466H15.5011C15.4983 7.3466 15.4936 7.3466 15.4898 7.3466C14.1773 7.3466 12.938 7.65785 11.8411 8.21097L11.888 8.18941L13.192 10.5266C13.867 10.205 14.6602 10.0166 15.4964 10.0166C15.4983 10.0166 15.5002 10.0166 15.502 10.0166L15.5002 10.0175ZM5.94047 13.6232C4.90359 13.6232 4.06266 14.4632 4.06266 15.5C4.06266 16.5369 4.90266 17.3769 5.93953 17.3769C6.97641 17.3769 7.81641 16.5369 7.81641 15.5C7.81641 14.4641 6.97641 13.6241 5.94047 13.6232ZM10.0177 15.5V15.4991C10.0177 13.6513 10.9317 12.0172 12.3323 11.0244L12.3492 11.0132L10.9786 8.71535C9.33797 9.81785 8.13422 11.4613 7.61672 13.385L7.60359 13.4422C8.19891 13.9232 8.57578 14.6525 8.57578 15.47C8.57578 15.4738 8.57578 15.4775 8.57578 15.4803V15.4794C8.57391 16.2997 8.19703 17.0319 7.60828 17.5128L7.60359 17.5166C8.13516 19.4975 9.33891 21.14 10.9495 22.2238L10.9786 22.2425L12.3492 19.94C10.9336 18.9585 10.0177 17.3422 10.0177 15.5113C10.0177 15.5066 10.0177 15.501 10.0177 15.4963V15.5ZM15.5002 20.9825C15.4992 20.9825 15.4973 20.9825 15.4955 20.9825C14.6592 20.9825 13.8661 20.795 13.1583 20.4585L13.1911 20.4725L11.887 22.8097C12.938 23.3422 14.1792 23.6544 15.4927 23.6544C16.2708 23.6544 17.0236 23.5447 17.7361 23.3403L17.6789 23.3544C17.8898 22.0925 18.9736 21.1419 20.2795 21.1419C20.6142 21.1419 20.9348 21.2047 21.2292 21.3182L21.2114 21.3116C22.5989 19.9532 23.4998 18.1044 23.6348 16.0466L23.6358 16.0222L20.9592 15.9838C20.7023 18.7953 18.3567 20.9825 15.5002 20.9825ZM19.342 22.1544C18.7777 22.4853 18.4045 23.0882 18.4045 23.7782C18.4045 24.8141 19.2445 25.6541 20.2805 25.6541C21.3164 25.6541 22.1564 24.8141 22.1564 23.7782C22.1564 23.4322 22.0627 23.1078 21.8995 22.8294L21.9042 22.8378C21.5733 22.2744 20.9705 21.9022 20.2805 21.9022C19.9345 21.9022 19.6111 21.996 19.3327 22.1582L19.3411 22.1535L19.342 22.1544ZM15.5002 1.44128C23.2645 1.44128 29.5589 7.73566 29.5589 15.5C29.5589 23.2644 23.2645 29.5588 15.5002 29.5588C7.73578 29.5588 1.44141 23.2644 1.44141 15.5C1.44516 7.73753 7.73672 1.44503 15.4992 1.44128H15.5002Z" fill="#344054"/>
</svg>
